<svg width="59" height="50" viewBox="0 0 59 50" fill="none" xmlns="http://www.w3.org/2000/svg">
<path d="M58.0237 27.3256L50.7343 10.1744C50.5107 9.66342 50.1445 9.22731 49.6792 8.91806C49.2139 8.60881 48.6693 8.43947 48.1101 8.43023H38.7797C38.0064 8.43023 37.2647 8.7365 36.7179 9.28167C36.1711 9.82683 35.8639 10.5662 35.8639 11.3372V2.90698C35.8639 2.136 35.5567 1.3966 35.0099 0.851434C34.4631 0.30627 33.7215 0 32.9482 0L2.91577 0C2.14246 0 1.40082 0.30627 0.854008 0.851434C0.307196 1.3966 0 2.136 0 2.90698L0 40.6977C0.0204673 40.9993 0.149917 41.2834 0.364365 41.4972C0.578813 41.711 0.863723 41.8401 1.16631 41.8605H5.53996C5.53996 44.0192 6.4001 46.0895 7.93118 47.616C9.46225 49.1424 11.5388 50 13.7041 50C15.8694 50 17.9459 49.1424 19.477 47.616C21.0081 46.0895 21.8682 44.0192 21.8682 41.8605H38.4881C38.4881 42.9294 38.6993 43.9878 39.1096 44.9753C39.5199 45.9629 40.1212 46.8602 40.8793 47.616C41.6374 48.3718 42.5375 48.9714 43.528 49.3804C44.5185 49.7895 45.5801 50 46.6523 50C47.7244 50 48.786 49.7895 49.7765 49.3804C50.7671 48.9714 51.6671 48.3718 52.4252 47.616C53.1833 46.8602 53.7847 45.9629 54.1949 44.9753C54.6052 43.9878 54.8164 42.9294 54.8164 41.8605H56.5659C56.8684 41.8401 57.1534 41.711 57.3678 41.4972C57.5823 41.2834 57.7117 40.9993 57.7322 40.6977V28.4884C58.3153 27.907 58.3153 27.6163 58.0237 27.3256ZM13.9957 44.4767C13.4767 44.4767 12.9693 44.3233 12.5378 44.0358C12.1062 43.7483 11.7699 43.3397 11.5712 42.8617C11.3726 42.3836 11.3207 41.8576 11.4219 41.3501C11.5232 40.8425 11.7731 40.3764 12.1401 40.0105C12.5071 39.6446 12.9747 39.3954 13.4837 39.2945C13.9928 39.1935 14.5204 39.2453 14.9999 39.4433C15.4794 39.6414 15.8893 39.9767 16.1776 40.4069C16.466 40.8372 16.6199 41.343 16.6199 41.8605C16.5552 42.5325 16.258 43.1612 15.7792 43.6386C15.3003 44.116 14.6698 44.4123 13.9957 44.4767ZM47.2354 44.4767C46.7164 44.4767 46.209 44.3233 45.7775 44.0358C45.3459 43.7483 45.0096 43.3397 44.811 42.8617C44.6124 42.3836 44.5604 41.8576 44.6616 41.3501C44.7629 40.8425 45.0128 40.3764 45.3798 40.0105C45.7468 39.6446 46.2144 39.3954 46.7235 39.2945C47.2325 39.1935 47.7601 39.2453 48.2396 39.4433C48.7192 39.6414 49.129 39.9767 49.4173 40.4069C49.7057 40.8372 49.8596 41.343 49.8596 41.8605C49.795 42.5325 49.4977 43.1612 49.0189 43.6386C48.5401 44.116 47.9095 44.4123 47.2354 44.4767ZM41.6955 27.907V13.9535H46.3607L52.7754 27.907H41.6955Z" fill="#003049"/>
</svg>
