<svg xmlns="http://www.w3.org/2000/svg" viewBox="0 0 90.04 88.75"><title>crane_2</title><g id="Layer_2" data-name="Layer 2"><g id="Layer_1-2" data-name="Layer 1"><path d="M59.52,70.62a.73.73,0,0,1-.34-.62v8.5H71.33Z"/><path d="M75.35,59.38a.74.74,0,0,1,.33.62V40a.71.71,0,0,1-.33.61L61.29,50Z"/><path d="M59.52,50.63a.77.77,0,0,1-.34-.63V70a.73.73,0,0,1,.34-.62L73.58,60Z"/><path d="M55.46,15.53a.75.75,0,0,1-.53.22h4.25V50.06a.75.75,0,0,1,.34-.62L73.62,40,59.52,29.78a.52.52,0,0,1-.11-.1.76.76,0,0,1,0-1.06l15-14.16a.8.8,0,0,1,.21-.2.76.76,0,0,1,1,.25.75.75,0,0,1-.24,1L61.11,29.08l14.26,10.3a.72.72,0,0,1,.31.62V15h2.86V10H71L69.46,8.47l-4-4h0a.74.74,0,0,1,0,1Z"/><path d="M35.46,15.53a.75.75,0,0,1-.53.22h20a.75.75,0,0,1-.53-.22L44.93,6.06Z"/><path d="M64.4,4.47a.75.75,0,0,1,.53-.22h-20a.75.75,0,0,1,.53.22l9.47,9.47Z"/><rect y="51.5" width="37.36" height="8.18"/><polygon points="37.36 61.18 0 61.18 0 68.75 0 68.82 37.36 68.82 37.36 68.75 37.36 61.18"/><path d="M34.92,42.36l-1.72-1.5-9.35-8.17c-.05.06-.09.12-.15.18l-.9.89,8.13,7.1,1.71,1.5H4.72l1.72-1.5,8.12-7.1-.9-.89-.14-.18L4.16,40.86l-1.72,1.5H0V50H37.36V42.36Z"/><path d="M19.43,21.25V11.15l10.2,4.54a.77.77,0,0,0,.3.06h5a.75.75,0,0,1-.53-.22L24.88,6l-5.73,4.59a.75.75,0,0,1-.94-1.18l6.25-5a.76.76,0,0,1,1,.06l9.47,9.47L44.4,4.47a.75.75,0,0,1,.53-.22H18.68a.77.77,0,0,0-.75.75V21.25H14.64V31.81l4,3.95,4-3.95V21.25Z"/><path d="M74,78.5h1.64V60a.74.74,0,0,1-.33.62L61.29,70Z"/><rect x="80.04" width="10" height="25"/><polygon points="74.93 80 59.93 80 49.93 80 49.93 88.75 84.93 88.75 84.93 80 74.93 80"/></g></g></svg>