<svg width="50" height="50" viewBox="0 0 50 50" fill="none" xmlns="http://www.w3.org/2000/svg">
<path d="M25 0C18.4417 0 12.5 5.31875 12.5 11.8792C12.5 21.6333 22.4646 22.6646 25 37.5C27.5354 22.6646 37.5 21.6333 37.5 11.8792C37.5 5.31875 31.5604 0 25 0ZM25 16.6667C22.6979 16.6667 20.8333 14.8021 20.8333 12.5C20.8333 10.1979 22.6979 8.33333 25 8.33333C27.3021 8.33333 29.1667 10.1979 29.1667 12.5C29.1667 14.8021 27.3021 16.6667 25 16.6667ZM50 50L36.0271 44.9437L25 50L13.3729 44.9437L0 50L8.33333 31.25L16.5833 27.95C17.375 29.025 18.1271 30.2 18.7937 31.5521L11.4542 34.4896L7.86042 42.5729L13.4271 40.4687L16.5646 34.8708L15.2417 41.2125L23.9688 44.9396L25 40.7292L25.9688 44.9458L34.6146 41.0083L33.3271 34.6896L36.6021 40.7229L42.2938 42.7833L38.6708 34.4958L31.2104 31.5479C31.875 30.1937 32.6292 29.0167 33.4229 27.9417L41.8 31.25L50 50Z"/>
</svg>
