<svg xmlns="http://www.w3.org/2000/svg" viewBox="0 0 201.52 197.48">
<title>spray</title>
<g id="Layer_2" data-name="Layer 2">
<g id="Layer_1-2" data-name="Layer 1">
<path class="cls-1" d="M90.37,61.65l16.2,7.58-3.36,7.2,13.68,6.4,8.93-19.09a23.58,23.58,0,0,1,5.09-29.66L160.83,8.57l-1.65-2.09A4,4,0,0,1,159.56,1a4,4,0,0,1,5.53.39L200.7,43.45a4.58,4.58,0,0,1-.55,5.89,4.59,4.59,0,0,1-5.89-.56L191.5,45.3,161.75,70.45a24.07,24.07,0,0,1-28.06,1.8l-7.07,15.13,61.59,28.8A8,8,0,0,1,192,126.75L181.1,150.16A8,8,0,0,1,170.53,154l-4.69-2.18-18.35,39.25a11.44,11.44,0,0,1-18.79,2.63,35.59,35.59,0,0,1-5.64-38.63L132,136l-8.65-4-6.9,14.77a5.17,5.17,0,0,1-9.37-4.38L114,127.56,85.52,114.25l-3.36,7.2L66,113.88l3.53-7.57L55.16,89.08l9.09-19.45,22.41-.06,3.71-7.92Zm45.94,69.76,29.18,13.65a2.79,2.79,0,0,0,2.36-5.05l-29.18-13.64a2.72,2.72,0,0,0-3.7,1.34A3,3,0,0,0,136.31,131.41Zm5.06-10.8,29.17,13.64a2.78,2.78,0,1,0,2.36-5l-29.18-13.64a2.71,2.71,0,0,0-3.7,1.34A3,3,0,0,0,141.37,120.61Zm5-10.81,29.17,13.65a2.79,2.79,0,0,0,2.36-5l-29.17-13.64a2.78,2.78,0,0,0-2.36,5Zm25.67-58.66,8.87-7.7-20-23.84L143.5,32.51Z"/>
<g class="circles">
<circle class="cls-1" cx="56.37" cy="55.51" r="3.98"/>
<circle class="cls-1" cx="45.33" cy="41.57" r="3.98"/>
<circle class="cls-1" cx="34.29" cy="27.63" r="3.98"/>
<circle class="cls-1" cx="29.47" cy="47.33" r="3.98"/>
<circle class="cls-1" cx="47.95" cy="73.52" r="3.98"/>
<circle class="cls-1" cx="33.54" cy="66.79" r="3.98"/>
<circle class="cls-1" cx="19.13" cy="60.05" r="3.98"/>
<circle class="cls-1" cx="4.73" cy="53.31" r="3.98"/>
<circle class="cls-1" cx="39.53" cy="91.53" r="3.98"/>
<circle class="cls-1" cx="21.75" cy="92" r="3.98"/>
<circle class="cls-1" cx="3.98" cy="92.47" r="3.98"/>
<circle class="cls-1" cx="16" cy="76.14" r="3.98"/>
</g>
</g>
</g>
</svg>