<svg width="41" height="38" viewBox="0 0 41 38" fill="none" xmlns="http://www.w3.org/2000/svg">
<path d="M13.2885 20.5874C9.83448 19.279 6.78883 17.0959 4.45662 14.257C2.12442 11.4181 0.587559 8.02297 0 4.41176L4.65851 3.68103C5.11491 6.48294 6.30776 9.11708 8.11759 11.3196C9.92743 13.5222 12.2907 15.2159 14.9708 16.231L13.2885 20.5874Z"/>
<path d="M22.2942 8.78529L19.3164 5.16427C22.1875 2.85849 25.6215 1.34013 29.2736 0.761585C32.9257 0.183044 36.6675 0.564682 40.1233 1.86819L38.4394 6.2215C35.7572 5.21161 32.8536 4.91688 30.0199 5.36686C27.1861 5.81685 24.5218 6.99574 22.2942 8.78529Z"/>
<path d="M22.2942 37.5031L19.3164 33.8852C21.5441 32.0944 23.2564 29.7556 24.2813 27.1036C25.3062 24.4516 25.6078 21.5797 25.1556 18.7761L29.8142 18.0438C29.9872 19.1321 30.0734 20.2321 30.072 21.3337C30.0775 24.4319 29.3819 27.4921 28.036 30.29C26.6902 33.0878 24.7283 35.5524 22.2942 37.5031Z"/>
</svg>
