<svg width="68" height="66" viewBox="0 0 68 66" fill="none" xmlns="http://www.w3.org/2000/svg">
<path d="M30.7523 29.1438L34.8287 31.0497L33.9816 32.8615L37.4239 34.471L39.6687 29.6698C38.2629 27.2463 38.7606 24.0569 40.9489 22.2099L48.475 15.7936L48.0585 15.2677C47.6903 14.8747 47.7632 14.2465 48.1562 13.8783C48.5491 13.5101 49.1774 13.583 49.5456 13.976L58.503 24.5668C58.8288 25.0503 58.7559 25.6785 58.3629 26.0468C57.8794 26.3726 57.2512 26.2997 56.8829 25.9067L56.1889 25.0302L48.7052 31.3559C46.6922 33.0641 43.7863 33.1405 41.6487 31.8099L39.8698 35.6146L55.3602 42.8573C56.3567 43.3232 56.7907 44.5197 56.3248 45.5161L53.5718 51.4043C53.1059 52.4007 51.9094 52.8348 50.9129 52.3689L49.7353 51.8183L45.1186 61.6923C44.2715 63.5041 41.7762 63.8828 40.3939 62.3534C37.9975 59.6875 37.4928 55.8086 38.9753 52.6381L41.2201 47.8369L39.046 46.8204L37.3094 50.5345C37.0129 51.1686 36.2153 51.458 35.5812 51.1615C34.9471 50.865 34.6577 50.0674 34.9542 49.4333L36.6907 45.7192L29.5343 42.3731L28.6872 44.1849L24.6108 42.2789L25.5003 40.3766L21.8968 36.0424L24.184 31.1507L29.8205 31.1367L30.7523 29.1438V29.1438ZM42.3083 46.6899L49.6459 50.1207C50.0083 50.2901 50.4071 50.1454 50.5765 49.783C50.7459 49.4207 50.6012 49.0219 50.2389 48.8524L42.9013 45.4217C42.539 45.2523 42.1401 45.397 41.9707 45.7593C41.8437 46.0311 41.946 46.5205 42.3083 46.6899ZM43.579 43.9723L50.9166 47.4031C51.2789 47.5725 51.6777 47.4278 51.8472 47.0654C52.0166 46.7031 51.8719 46.3042 51.5095 46.1348L44.172 42.7041C43.8096 42.5346 43.4108 42.6793 43.2414 43.0417C43.1143 43.3135 43.2166 43.8029 43.579 43.9723ZM44.8496 41.2547L52.1872 44.6854C52.5496 44.8549 52.9484 44.7102 53.1178 44.3478C53.2872 43.9855 53.1425 43.5866 52.7802 43.4172L45.4426 39.9865C45.0803 39.817 44.6814 39.9617 44.512 40.3241C44.3426 40.6864 44.4873 41.0853 44.8496 41.2547ZM51.3065 26.5007L53.5371 24.5631L48.5031 18.5665L44.1148 21.8135L51.3065 26.5007Z"/>
<circle cx="22.2013" cy="27.6002" r="1" transform="rotate(25.059 22.2013 27.6002)"/>
<circle cx="19.4249" cy="24.0941" r="1" transform="rotate(25.059 19.4249 24.0941)"/>
<circle cx="16.6485" cy="20.5882" r="1" transform="rotate(25.059 16.6485 20.5882)"/>
<circle cx="15.4366" cy="25.5411" r="1" transform="rotate(25.059 15.4366 25.5411)"/>
<circle cx="20.0835" cy="32.1295" r="1" transform="rotate(25.059 20.0835 32.1295)"/>
<circle cx="16.46" cy="30.4354" r="1" transform="rotate(25.059 16.46 30.4354)"/>
<circle cx="12.8366" cy="28.741" r="1" transform="rotate(25.059 12.8366 28.741)"/>
<circle cx="9.21303" cy="27.047" r="1" transform="rotate(25.059 9.21303 27.047)"/>
<circle cx="17.9658" cy="36.6588" r="1" transform="rotate(25.059 17.9658 36.6588)"/>
<circle cx="13.4952" cy="36.7764" r="1" transform="rotate(25.059 13.4952 36.7764)"/>
<circle cx="9.02456" cy="36.8939" r="1" transform="rotate(25.059 9.02456 36.8939)"/>
<circle cx="12.0482" cy="32.7882" r="1" transform="rotate(25.059 12.0482 32.7882)"/>
</svg>
