<svg width="202" height="50" viewBox="0 0 202 50" fill="none" xmlns="http://www.w3.org/2000/svg">
<path d="M54.2206 32.8114L58.3276 28.9791C59.443 30.3112 60.4947 31.0801 61.9076 31.0801C63.5159 31.0801 64.5357 30.0065 64.5357 27.8971V13.5156H70.8735V27.9433C70.8735 30.8007 70.1512 32.8156 68.6087 34.343C67.0959 35.8368 64.9288 36.6541 62.3006 36.6541C58.2936 36.6436 55.8311 34.988 54.2206 32.8114Z" fill="#003049"/>
<path d="M81.7814 13.354H87.9237L97.7119 36.2551H90.8791L89.2049 32.1938H80.3345L78.6922 36.2551H71.9911L81.7814 13.354ZM87.3649 27.2901L84.8026 20.8252L82.2085 27.2901H87.3649Z" fill="#003049"/>
<path d="M99.947 13.5156H105.896L115.357 25.5355V13.5156H121.663V36.2549H116.075L106.253 23.7812V36.2549H99.947V13.5156Z" fill="#003049"/>
<path d="M125.732 13.5156H132.467L137.952 22.3189L143.438 13.5156H150.171V36.2549H143.838V23.1971L137.952 32.097H137.821L131.974 23.2622V36.2549H125.732V13.5156Z" fill="#003049"/>
<path d="M162.195 13.354H168.337L178.125 36.2551H171.292L169.618 32.1938H160.75L159.107 36.2551H152.406L162.195 13.354ZM167.778 27.2901L165.216 20.8252L162.622 27.2901H167.778Z" fill="#003049"/>
<path d="M180.36 13.5156H191.232C194.748 13.5156 197.181 14.4254 198.721 15.9843C200.068 17.2848 200.759 19.0392 200.759 21.281V21.344C200.759 24.8212 198.887 27.126 196.029 28.3278L201.515 36.2549H194.155L189.517 29.3678H186.732V36.2549H180.358L180.36 13.5156ZM190.937 24.4409C193.106 24.4409 194.353 23.3904 194.353 21.7453V21.6802C194.353 19.8943 193.04 18.9846 190.905 18.9846H186.732V24.4472L190.937 24.4409Z" fill="#003049"/>
<path d="M17.9574 27.1448C13.2898 25.3766 9.17409 22.4266 6.02247 18.5902C2.87084 14.7538 0.793998 10.1658 0 5.28582L6.29529 4.29834C6.91204 8.0847 8.524 11.6444 10.9697 14.6208C13.4154 17.5972 16.6091 19.886 20.2308 21.2578L17.9574 27.1448Z" fill="#003049"/>
<path d="M30.1273 11.1961L26.1033 6.30284C29.9832 3.18692 34.6237 1.13508 39.5589 0.353265C44.4942 -0.428547 49.5506 0.0871802 54.2207 1.84868L51.9452 7.73153C48.3206 6.36681 44.3968 5.96853 40.5674 6.57662C36.738 7.18471 33.1376 8.77779 30.1273 11.1961V11.1961Z" fill="#003049"/>
<path d="M30.1273 50.0038L26.1033 45.1148C29.1137 42.6947 31.4276 39.5343 32.8126 35.9505C34.1976 32.3667 34.6051 28.4858 33.9942 24.6971L40.2895 23.7075C40.5233 25.1781 40.6398 26.6646 40.6379 28.1533C40.6453 32.3401 39.7053 36.4755 37.8866 40.2564C36.0679 44.0373 33.4167 47.3678 30.1273 50.0038V50.0038Z" fill="#003049"/>
</svg>
