<svg width="60" height="60" viewBox="0 0 60 60" fill="none" xmlns="http://www.w3.org/2000/svg">
<path d="M55.002 0H4.998H0V4.998V27.498H4.998V4.998H55.002V27.498H60V4.998V0H55.002Z" fill="#003049"/>
<path d="M56.676 32.502V58.35H3.324V32.502H1.674V58.35V60H3.324H56.676H58.326V58.35V32.502H56.676Z" fill="#003049"/>
<path d="M12.384 26.1121H17.514V27.3121H10.554V26.2381L15.39 19.8001H10.626V18.6001H17.274V19.6621L12.384 26.1121Z" fill="#003049"/>
<path d="M22.71 27.4976C22.1699 27.5183 21.6316 27.4248 21.1301 27.2232C20.6286 27.0216 20.1754 26.7164 19.8 26.3276C19.0279 25.4725 18.6266 24.3462 18.684 23.1956V22.9196C18.6764 22.1144 18.8529 21.3182 19.2 20.5916C19.5054 19.9381 19.9876 19.3832 20.592 18.9896C21.1658 18.6004 21.8427 18.3915 22.536 18.3896C23.0382 18.3638 23.5395 18.4537 24.0014 18.6524C24.4633 18.8511 24.8734 19.1533 25.2 19.5356C25.8898 20.4623 26.226 21.6049 26.148 22.7576V23.3576H20.19C20.1719 24.1255 20.4416 24.8724 20.946 25.4516C21.1763 25.7156 21.4616 25.926 21.7819 26.068C22.1022 26.21 22.4497 26.2802 22.8 26.2736C23.269 26.2884 23.7333 26.1764 24.144 25.9496C24.5198 25.7305 24.8481 25.4389 25.11 25.0916L26.016 25.7996C25.6649 26.3502 25.1737 26.7977 24.5928 27.096C24.0119 27.3944 23.3621 27.533 22.71 27.4976ZM22.524 19.6376C22.2369 19.6318 21.952 19.6884 21.6889 19.8034C21.4258 19.9183 21.1908 20.089 21 20.3036C20.5532 20.8212 20.2859 21.4695 20.238 22.1516H24.63V22.0376C24.6314 21.3974 24.4204 20.7749 24.03 20.2676C23.8426 20.056 23.6098 19.8895 23.349 19.7804C23.0883 19.6713 22.8063 19.6225 22.524 19.6376Z" fill="#003049"/>
<path d="M35.286 23.0516C35.342 24.2009 35.0149 25.3363 34.356 26.2796C34.0726 26.6671 33.6985 26.9791 33.2665 27.1883C32.8345 27.3975 32.3577 27.4976 31.878 27.4796C31.3875 27.5045 30.8983 27.4112 30.4514 27.2076C30.0045 27.004 29.613 26.696 29.31 26.3096L29.238 27.3176H27.858V14.8916H29.358V19.5356C29.6584 19.1642 30.0419 18.8686 30.4775 18.6727C30.9132 18.4767 31.3888 18.3859 31.866 18.4076C32.3498 18.3904 32.8307 18.4906 33.2674 18.6995C33.7041 18.9085 34.0838 19.2201 34.374 19.6076C35.0291 20.5812 35.3493 21.7418 35.286 22.9136V23.0516ZM33.786 22.8836C33.8416 22.0406 33.6318 21.2013 33.186 20.4836C32.9952 20.2123 32.739 19.9935 32.4411 19.8477C32.1432 19.7019 31.8133 19.6338 31.482 19.6496C31.0281 19.6326 30.5801 19.756 30.1989 20.003C29.8177 20.2499 29.522 20.6084 29.352 21.0296V24.8216C29.5304 25.24 29.8307 25.595 30.2139 25.8401C30.5971 26.0852 31.0453 26.2091 31.5 26.1956C31.8275 26.209 32.1532 26.1396 32.4468 25.9939C32.7405 25.8481 32.9926 25.6306 33.18 25.3616C33.6268 24.6154 33.838 23.7518 33.786 22.8836Z" fill="#003049"/>
<path d="M41.4 19.9141C41.1578 19.8767 40.913 19.8586 40.668 19.8601C40.2435 19.8258 39.8193 19.9293 39.4583 20.1552C39.0973 20.3811 38.8188 20.7174 38.664 21.1141V27.3361H37.2V18.6001H38.658V19.6141C38.8646 19.2422 39.1688 18.9339 39.5379 18.7224C39.9069 18.5109 40.3267 18.4043 40.752 18.4141C40.9776 18.4042 41.2027 18.4431 41.412 18.5281L41.4 19.9141Z" fill="#003049"/>
<path d="M47.874 27.3356C47.7572 27.036 47.6864 26.7204 47.664 26.3996C47.3477 26.7459 46.9619 27.0217 46.5318 27.2088C46.1017 27.3959 45.637 27.4902 45.168 27.4856C44.3913 27.5177 43.6309 27.2564 43.038 26.7536C42.7721 26.5232 42.5601 26.2372 42.417 25.9158C42.2739 25.5943 42.2032 25.2454 42.21 24.8936C42.1975 24.4855 42.2864 24.0807 42.4686 23.7153C42.6507 23.3499 42.9206 23.0353 43.254 22.7996C44.1282 22.2332 45.1601 21.96 46.2 22.0196H47.64V21.3356C47.6517 21.1057 47.6163 20.8759 47.5358 20.6602C47.4553 20.4445 47.3315 20.2476 47.172 20.0816C46.9833 19.916 46.7637 19.7894 46.5258 19.709C46.2879 19.6287 46.0365 19.5963 45.786 19.6136C45.3036 19.5988 44.8295 19.7421 44.436 20.0216C44.2734 20.1286 44.1393 20.2736 44.0452 20.4439C43.9512 20.6143 43.9 20.805 43.896 20.9996H42.39C42.3998 20.5382 42.5623 20.093 42.852 19.7336C43.1841 19.3083 43.6201 18.9756 44.118 18.7676C44.6694 18.5232 45.2669 18.4004 45.87 18.4076C46.7365 18.3497 47.5931 18.6195 48.27 19.1636C48.558 19.4288 48.7866 19.752 48.9407 20.1119C49.0948 20.4717 49.1709 20.8602 49.164 21.2516V25.2896C49.1382 25.9436 49.2422 26.5961 49.47 27.2096V27.3356H47.874ZM45.384 26.1956C45.8549 26.1971 46.3174 26.0706 46.722 25.8296C47.1172 25.6143 47.4375 25.2836 47.64 24.8816V23.0816H46.44C44.604 23.0816 43.686 23.6196 43.686 24.6956C43.6784 24.905 43.7188 25.1133 43.8041 25.3046C43.8894 25.496 44.0173 25.6653 44.178 25.7996C44.5186 26.0737 44.9472 26.2144 45.384 26.1956Z" fill="#003049"/>
<path d="M13.2 49.5056H10.056V32.7056H13.2V49.5056Z" fill="#003049"/>
<path d="M26.304 49.5056H23.166L18.54 39.0656V49.5056H15.384V32.7056H18.54L23.16 43.1996V32.7296H26.304V49.5056Z" fill="#003049"/>
<path d="M32.736 43.26L31.446 45.06V49.488H28.296V32.688H31.446V40.128L32.538 37.998L35.358 32.73H39.258L34.836 40.152L39.258 49.506H35.52L32.736 43.26Z" fill="#003049"/>
<path d="M46.8 45.0479C46.8152 44.7962 46.7801 44.5439 46.6967 44.306C46.6132 44.068 46.4831 43.849 46.314 43.6619C45.8053 43.2206 45.2223 42.8732 44.592 42.6359C43.9028 42.3452 43.2369 42.0022 42.6 41.6099C41.8134 41.1761 41.1595 40.5366 40.7082 39.7598C40.2569 38.983 40.0253 38.0982 40.038 37.1999C40.0109 36.3407 40.2184 35.4902 40.638 34.7399C41.066 34.0261 41.691 33.451 42.438 33.0839C43.243 32.6776 44.1343 32.4718 45.036 32.4839C45.9218 32.4711 46.7953 32.6926 47.568 33.1259C48.3109 33.558 48.9131 34.1956 49.302 34.9619C49.7198 35.8079 49.9258 36.7427 49.902 37.6859H46.8C46.8338 37.1157 46.6589 36.5527 46.308 36.1019C46.147 35.9079 45.9439 35.753 45.7142 35.6491C45.4844 35.5451 45.2341 35.4948 44.982 35.5019C44.7393 35.4901 44.4967 35.5265 44.268 35.6088C44.0394 35.6912 43.8294 35.818 43.65 35.9819C43.4917 36.1384 43.367 36.3255 43.2834 36.5319C43.1999 36.7382 43.1592 36.9594 43.164 37.1819C43.1647 37.4087 43.2131 37.6327 43.3062 37.8395C43.3992 38.0462 43.5348 38.2311 43.704 38.3819C44.2643 38.8641 44.9065 39.2421 45.6 39.4979C46.3891 39.8036 47.1369 40.2067 47.826 40.6979C48.507 41.1842 49.0569 41.8316 49.4265 42.5823C49.7961 43.3331 49.9739 44.1637 49.944 44.9999C49.9794 45.6338 49.883 46.2682 49.661 46.863C49.4389 47.4578 49.0961 48.0002 48.654 48.4559C48.175 48.8887 47.615 49.2223 47.0064 49.4375C46.3978 49.6527 45.7526 49.7453 45.108 49.7099C44.1005 49.722 43.1075 49.4696 42.228 48.9779C41.398 48.5164 40.7235 47.8189 40.29 46.9739C39.843 46.0616 39.6208 45.0556 39.642 44.0399H42.798C42.7385 44.7476 42.932 45.4535 43.344 46.0319C43.5726 46.2619 43.8494 46.4383 44.1545 46.5483C44.4596 46.6583 44.7852 46.6991 45.108 46.6679C45.5608 46.6923 46.005 46.537 46.344 46.2359C46.4974 46.0798 46.6171 45.8937 46.6955 45.6893C46.774 45.485 46.8095 45.2666 46.8 45.0479Z" fill="#003049"/>
</svg>
