<svg width="100" height="71" viewBox="0 0 100 71" fill="none" xmlns="http://www.w3.org/2000/svg">
<path d="M98.6 3.42015C97.2 1.12015 94.6 -0.179849 91.9 0.0201507H83.5C58.4 0.0201507 33.3 0.0201507 8.2 0.0201507C5.3 0.0201507 2.9 0.920151 1.3 3.42015C0.8 4.42015 0.4 5.42015 0 6.52015V63.9201C0.3 65.0201 0.8 66.0202 1.3 67.0202C2.7 69.2202 5.2 70.5202 7.8 70.4202H8.9C36.4 70.4202 64 70.4202 91.5 70.4202C94.4 70.4202 96.9 69.5202 98.5 67.0202C99 66.0202 99.4 65.0201 99.8 63.9201V6.52015C99.5 5.42015 99.1 4.42015 98.6 3.42015ZM45.1 5.42015C48.6 5.42015 52 5.42015 55.5 5.42015C55.8 5.42015 56 5.62015 56.1 5.82015C56.1 8.02015 56.1 10.2202 56.1 12.5202H44.4C44.4 11.5202 44.4 10.5202 44.4 9.52015C44.4 8.52015 44.4 7.22015 44.4 6.12015C44.3 5.82015 44.5 5.52015 44.8 5.42015C44.9 5.42015 45 5.42015 45.1 5.42015ZM16.7 65.0202C16.5 65.0202 16.2 65.1202 16 65.1202C12.7 65.1202 9.4 65.1202 6 65.1202C5.4 65.1202 5.1 65.0202 5.1 64.3202C5.1 62.2202 5.1 60.2202 5.1 58.0202H16.7V65.0202ZM17.1 12.0202C17 12.3202 16.9 12.5202 16.6 12.6202C13 12.6202 9.4 12.6202 5.8 12.6202C5.7 12.6202 5.5 12.6202 5.4 12.5202C5.4 10.3202 5.4 8.02015 5.4 5.82015C5.5 5.62015 5.7 5.42015 5.9 5.42015C9.4 5.42015 12.9 5.42015 16.4 5.42015C16.7 5.32015 16.9 5.52015 17 5.82015C17 5.92015 17 6.02015 17 6.02015C17.1 8.02015 17.1 10.0202 17.1 12.0202ZM36.2 65.0202C35.9 65.0202 35.7 65.1202 35.5 65.1202C32.2 65.1202 28.8 65.1202 25.5 65.1202C25.1 65.2202 24.8 65.0202 24.6 64.6202C24.6 64.5202 24.6 64.3202 24.6 64.2202C24.6 62.1202 24.6 60.1201 24.6 57.9201H36.2V65.0202ZM36.6 11.9202C36.7 12.2202 36.5 12.6202 36.2 12.7202C36.1 12.7202 36 12.7202 35.9 12.7202C32.5 12.7202 29 12.7202 25.6 12.7202C25.3 12.7202 25.1 12.5202 24.9 12.3202C24.9 10.1202 24.9 7.92015 24.9 5.62015C25.3 5.62015 25.5 5.62015 25.7 5.62015C29.1 5.62015 32.4 5.62015 35.7 5.62015C36.1 5.52015 36.4 5.72015 36.6 6.12015C36.6 6.22015 36.6 6.42015 36.6 6.52015C36.6 8.12015 36.6 10.0202 36.6 11.9202ZM55.7 65.0202C55.4 65.0202 55.2 65.1202 54.9 65.1202C51.6 65.1202 48.2 65.1202 44.9 65.1202C44.3 65.1202 44.1 65.0202 44.1 64.3202C44.1 62.4202 44.1 60.5202 44.1 58.6202C44.1 58.4202 44.1 58.2201 44.2 57.9201H55.7V65.0202ZM56.9 37.9202L45.4 45.0201C43.1 46.5201 41.2 45.4202 41.2 42.7201V27.7201C41.2 24.9202 43.1 23.9202 45.4 25.4202L56.9 32.5201C59.2 34.0201 59.2 36.4202 56.9 37.9202ZM75.2 64.7202C75.1 64.9202 74.9 65.1202 74.7 65.1202C71.2 65.1202 67.6 65.1202 64.1 65.1202C63.9 65.1202 63.7 64.9202 63.6 64.7202C63.6 62.5202 63.6 60.3202 63.6 58.0202H75.2C75.2 60.3202 75.2 62.5202 75.2 64.7202ZM75.6 11.9202C75.6 12.3202 75.6 12.6202 75.1 12.6202H64.1V5.42015H69.3C71.2 5.42015 73.1 5.42015 75 5.42015C75.3 5.32015 75.6 5.52015 75.7 5.82015C75.7 5.92015 75.7 6.02015 75.7 6.12015C75.5 8.12015 75.6 10.0202 75.6 11.9202ZM94.7 65.0202H83.1V58.0202H94.6V65.0202H94.7ZM95.1 12.0202C95.1 12.4202 95 12.7202 94.5 12.7202C91 12.7202 87.4 12.7202 83.9 12.7202C83.8 12.7202 83.6 12.7202 83.5 12.6202V5.52015C83.8 5.52015 84.1 5.52015 84.3 5.52015C87.6 5.52015 91 5.52015 94.3 5.52015C94.7 5.42015 95 5.62015 95.2 6.02015C95.2 6.12015 95.2 6.32015 95.2 6.42015C95 8.22015 95.1 10.1202 95.1 12.0202Z" fill="#003149"/>
</svg>
