<svg xmlns="http://www.w3.org/2000/svg" viewBox="0 0 378.81 397.91"><title>JanmarLogo</title><g id="Layer_2" data-name="Layer 2"><g id="Layer_1-2" data-name="Layer 1"><path d="M198.26,112.33,159.53,83.61a208.65,208.65,0,0,1,20-23.2A206.23,206.23,0,0,1,378.81,7L366.37,53.58a158.3,158.3,0,0,0-168.11,58.75Z" style="fill:#003049"/><path d="M143.18,276.77A206.54,206.54,0,0,1,0,140.17l45.95-14.62a156.3,156.3,0,0,0,38.85,63.7,158,158,0,0,0,70.83,40.93Z" style="fill:#003049"/><path d="M302.56,397.91,263.83,369.2a158.44,158.44,0,0,0,23.48-142.05l45.95-14.62A206.78,206.78,0,0,1,302.56,397.91Z" style="fill:#003049"/></g></g></svg>